<svg width="511" height="540" viewBox="0 0 511 540" fill="none" xmlns="http://www.w3.org/2000/svg">
<path d="M507.5 72.1405V396.367L327.5 531.011V5.04001L507.5 72.1405Z" fill="white" stroke="#D0BB94" stroke-width="7"/>
<mask id="mask0_985_169" style="mask-type:luminance" maskUnits="userSpaceOnUse" x="323" y="0" width="187" height="540">
<path d="M510 399L323 539.19V0L510 69.87V399Z" fill="white"/>
</mask>
<g mask="url(#mask0_985_169)">
<path d="M323 11.02L343.01 54.66L405.77 71.54L409.61 81.09C409.34 82.08 409.19 83.26 409.19 84.56C409.19 88.61 410.65 92.21 412.44 92.6C414.23 92.99 415.64 90.07 415.64 86.09C415.64 82.11 414.21 78.51 412.44 78.06C412.28 78.02 412.13 78.01 411.98 78.02L406.96 65.44L406.9 65.55V65.42L344.58 47.65L340.51 38.66L371.5 48.02C371.61 48.61 371.77 49.18 371.99 49.7C372.91 51.86 374.41 52.3 375.32 50.7C376.23 49.09 376.23 46.05 375.32 43.89C374.41 41.73 372.91 41.25 371.99 42.84C371.77 43.22 371.61 43.7 371.49 44.22L338.35 33.92L332.38 20.76L354.63 28.21C354.76 28.84 354.94 29.44 355.17 29.98C356.17 32.27 357.78 32.79 358.77 31.17C359.75 29.55 359.75 26.38 358.77 24.11C357.79 21.81 356.17 21.24 355.17 22.86C354.93 23.24 354.75 23.72 354.63 24.27L330.16 15.86L323 0.0400391V11.02Z" fill="#2D6353"/>
<path d="M375.92 380.52C378.3 379.39 380.21 374.52 380.21 369.64C380.21 364.76 378.3 361.62 375.92 362.64C375.2 362.95 374.53 363.64 373.92 364.55L359.04 340.48V278.33C359.04 278 359 277.7 358.94 277.42L364.17 276.25C364.12 276.55 364.08 276.87 364.08 277.2V304.66C362.22 306.38 360.85 310.24 360.85 314.37C360.85 319.47 362.92 322.94 365.45 322.11C367.98 321.28 369.95 316.56 369.95 311.57C369.95 307.53 368.63 304.52 366.81 303.87V276.58C366.81 276.25 366.77 275.96 366.72 275.68L368.99 275.17C374.01 274.05 378 264.96 378 254.88V198.3C378 188.22 374.01 180.04 368.99 180.06L338.5 180.18C332.61 180.2 327.72 189.39 327.72 200.66V263.93C327.72 275.2 332.62 283.28 338.5 281.96L339.66 281.7C339.6 282.02 339.56 282.35 339.56 282.7V374.89L366.67 414.89C366.34 416.33 366.14 417.85 366.14 419.37C366.14 424.41 368.17 427.35 370.63 425.94C373.09 424.53 375.03 419.4 375.03 414.46C375.03 409.52 373.07 406.54 370.63 407.84C369.89 408.23 369.2 409 368.58 409.99L342.6 371.2V282.02C342.6 281.68 342.56 281.37 342.5 281.07L348.13 279.81C348.07 280.13 348.03 280.45 348.03 280.79V359.07L369.37 391.89C369.05 393.3 368.85 394.8 368.85 396.31C368.85 401.32 370.85 404.35 373.29 403.08C375.73 401.81 377.64 396.81 377.64 391.9C377.64 386.99 375.7 383.93 373.29 385.09C372.56 385.44 371.88 386.17 371.27 387.12L350.97 355.55V280.13C350.97 279.79 350.93 279.49 350.87 279.2L356.29 277.99C356.24 278.3 356.19 278.62 356.19 278.95V343.83L372.04 369.18C371.72 370.57 371.52 372.05 371.52 373.55C371.52 378.53 373.5 381.65 375.9 380.51L375.92 380.52ZM365.46 316.6C364.46 316.92 363.64 315.53 363.64 313.51C363.64 311.49 364.46 309.59 365.46 309.29C366.46 308.99 367.27 310.38 367.27 312.39C367.27 314.4 366.46 316.29 365.46 316.6ZM372.41 415.92C372.41 417.9 371.62 419.96 370.64 420.51C369.66 421.06 368.86 419.88 368.86 417.88C368.86 415.88 369.66 413.82 370.64 413.28C371.62 412.74 372.41 413.93 372.41 415.92ZM375.04 393.22C375.04 395.19 374.26 397.19 373.29 397.69C372.32 398.19 371.53 396.97 371.53 394.98C371.53 393.99 371.73 392.99 372.05 392.18C372.37 391.37 372.81 390.75 373.29 390.51C374.25 390.03 375.04 391.25 375.04 393.22ZM330.93 263.36V200.51C330.93 192.59 334.36 186.09 338.51 186.02L369 185.52C372.56 185.46 375.42 191.25 375.42 198.43V255.35C375.42 262.52 372.57 268.96 369 269.71L338.51 276.13C334.36 277 330.93 271.28 330.93 263.36ZM377.64 370.8C377.64 372.76 376.87 374.71 375.92 375.15C374.97 375.59 374.18 374.34 374.18 372.37C374.18 370.4 374.96 368.44 375.92 368.02C376.88 367.6 377.64 368.85 377.64 370.81V370.8Z" fill="#2D6353"/>
<path d="M370.77 214.01C370.77 203.54 366.56 195.22 361.26 195.43L347.06 195.98C341.27 196.2 336.46 205.55 336.46 216.85V245.8C336.46 257.1 341.26 265.35 347.06 264.26L361.26 261.58C366.56 260.58 370.77 251.3 370.77 240.84V214.02V214.01Z" fill="#2D6353"/>
<path d="M382.3 449.49C382.3 457.55 385.41 462 389.17 459.44C392.86 456.93 395.82 448.58 395.82 440.77C395.82 433.84 393.49 429.5 390.39 430.18V167.24C390.39 166.55 390.26 165.89 390.03 165.39L384.99 154.49C384.75 153.96 384.43 153.69 384.11 153.67L323 150.07V156.11L383.59 158.92L387.95 168.26V431.69C384.76 434.88 382.3 442.35 382.3 449.5V449.49ZM393.44 442.31C393.44 447.32 391.54 452.66 389.17 454.24C386.8 455.82 384.81 452.99 384.81 447.87C384.81 442.75 386.78 437.37 389.17 435.89C391.56 434.41 393.44 437.31 393.44 442.31Z" fill="#2D6353"/>
<path d="M400.47 427.74C403.97 425.57 406.77 417.66 406.77 410.07C406.77 403.33 404.56 398.94 401.63 399.37V143.58C401.63 142.91 401.51 142.26 401.29 141.76L396.52 130.88C396.29 130.35 395.99 130.07 395.68 130.03L323 121.41V127.45L395.19 135.1L399.31 144.43V400.64C396.3 403.51 393.97 410.59 393.97 417.55C393.97 425.39 396.91 429.94 400.47 427.74ZM400.47 404.83C402.71 403.57 404.51 406.52 404.51 411.39C404.51 416.26 402.71 421.32 400.47 422.68C398.23 424.04 396.35 421.14 396.35 416.17C396.35 411.2 398.21 406.11 400.47 404.83Z" fill="#2D6353"/>
<path d="M411.16 397.73C414.47 395.87 417.13 388.37 417.13 380.98C417.13 374.42 415.04 369.98 412.26 370.2V121.18C412.26 120.53 412.15 119.89 411.94 119.39L407.42 108.54C407.2 108.02 406.91 107.72 406.63 107.67L323 92.7598V98.7998L406.16 112.58L410.06 121.88V371.27C407.2 373.85 405 380.57 405 387.34C405 394.97 407.78 399.61 411.16 397.72V397.73ZM411.16 375.43C413.28 374.36 414.99 377.36 414.99 382.11C414.99 386.86 413.28 391.65 411.16 392.81C409.04 393.97 407.25 391.01 407.25 386.17C407.25 381.33 409.01 376.51 411.16 375.43Z" fill="#2D6353"/>
<path d="M480.75 403.51V386.81C500.58 374.46 542.95 346.98 556.61 337.75V335.06C542.96 344.14 500.57 371.16 480.75 383.29V364.4C500.86 353.27 518.81 342.88 534.52 333.36C534.73 337 535.73 339.25 536.93 338.54C538.26 337.74 539.33 333.53 539.33 329.14C539.33 324.75 538.26 321.77 536.93 322.49C535.74 323.14 534.73 326.55 534.52 330.43C518.81 339.77 500.86 349.97 480.76 360.88V347.64C480.76 347.64 480.84 347.66 480.88 347.64C499.23 337.64 515.72 328.99 530.22 321.7C530.44 325.41 531.47 327.76 532.7 327.08C534.07 326.32 535.18 322.09 535.18 317.64C535.18 313.19 534.07 310.1 532.7 310.78C531.47 311.38 530.44 314.79 530.22 318.73C523.23 322.17 515.79 325.91 507.92 329.95C499.43 334.31 490.41 339.04 480.87 344.13C480.83 344.15 480.8 344.21 480.76 344.25V330.96C480.76 330.96 480.81 330.98 480.84 330.96C497.33 323.6 512.74 316.28 525.77 309.69C526 313.46 527.06 315.88 528.33 315.25C529.75 314.54 530.89 310.29 530.89 305.76C530.89 301.23 529.75 298.05 528.33 298.67C527.06 299.23 525.99 302.66 525.77 306.66C512.75 313.11 497.34 320.26 480.86 327.44C480.86 327.44 480.8 327.51 480.77 327.53V314.23C480.77 314.23 480.85 314.27 480.89 314.25C495.79 307.58 508.91 302.06 521.18 297.24C521.41 301.1 522.52 303.62 523.83 303.03C525.3 302.38 526.48 298.11 526.48 293.51C526.48 288.91 525.3 285.62 523.83 286.19C522.52 286.7 521.41 290.12 521.18 294.17C515.25 296.43 509.13 298.85 502.72 301.49C495.84 304.31 488.61 307.38 480.89 310.75C480.85 310.77 480.82 310.82 480.78 310.86V200.65L457.13 137.68C457.18 137.53 457.21 137.34 457.21 137.13V44.2004C457.62 44.1704 458.01 43.8404 458.33 43.1604C459.15 41.3904 459.15 38.0004 458.33 35.5704C457.92 34.3504 457.38 33.6004 456.84 33.3804C456.3 33.1604 455.75 33.4504 455.34 34.3304C454.51 36.1004 454.51 39.5404 455.34 41.9804C455.66 42.9204 456.06 43.5604 456.47 43.9104V135.93L452.98 126.65V31.7904C453.4 31.7804 453.8 31.4504 454.13 30.7704C454.97 29.0104 454.97 25.5804 454.13 23.0904C453.71 21.8404 453.16 21.0704 452.6 20.8204C452.04 20.5704 451.49 20.8504 451.06 21.7304C450.2 23.4904 450.2 26.9704 451.06 29.4804C451.39 30.4404 451.8 31.1104 452.22 31.4804V124.63L448.62 115.05C448.63 114.96 448.64 114.87 448.64 114.78V19.0204C449.08 19.0304 449.49 18.7404 449.82 18.0804C450.68 16.3304 450.68 12.8504 449.82 10.3104C449.4 9.07039 448.85 8.23039 448.25 7.95039C447.65 7.67039 447.09 7.97039 446.67 8.81039C446.25 9.66039 446.01 10.9404 446.01 12.4204C446.01 13.9004 446.24 15.4104 446.67 16.6504C447 17.6104 447.42 18.2904 447.86 18.6704V113.02L444.2 103.27V5.9904C444.65 6.0204 445.08 5.7404 445.41 5.0804C445.84 4.2404 446.07 2.9604 446.07 1.4704C446.07 -0.0196021 445.84 -1.5296 445.41 -2.7896C444.98 -4.0596 444.41 -4.92959 443.8 -5.23959C443.19 -5.54959 442.61 -5.2596 442.18 -4.4196C441.28 -2.6796 441.28 0.890401 442.18 3.5204C442.52 4.5004 442.95 5.2004 443.4 5.6104V101.15L438.67 88.5504V-115.47L438.58 -115.54L438.67 -115.69L430.52 -141.96C430.56 -142.53 430.58 -143.11 430.58 -143.74C430.58 -150.83 428.13 -158.79 425.06 -161.55C421.94 -164.35 419.38 -160.73 419.38 -153.43C419.38 -146.13 421.94 -138.07 425.06 -135.48C426.05 -134.66 426.97 -134.5 427.77 -134.88L434.08 -114.82V91.9204L477.19 204.95V218.81L462.76 220.6V223.2L446.89 225.29C446.69 220.38 444.99 216.69 442.91 216.92C440.67 217.16 438.82 221.84 438.82 227.35C438.82 232.86 440.67 237.04 442.91 236.68C444.99 236.34 446.69 232.2 446.89 227.24L462.76 225.06V227.66L477.19 225.57V246.09L462.76 249.09V251.69L452.31 253.94C452.12 249.12 450.47 245.63 448.45 246.01C446.28 246.42 444.49 251.18 444.49 256.6C444.49 262.02 446.28 266 448.45 265.46C450.47 264.96 452.11 260.75 452.31 255.85L462.76 253.54V256.14L477.19 252.84V273.36L462.76 277.57V280.17L439.3 287.19C439.09 282.21 437.32 278.75 435.15 279.34C432.81 279.98 430.88 285.09 430.88 290.72C430.88 296.35 432.81 300.29 435.15 299.52C437.32 298.8 439.09 294.27 439.3 289.17L462.76 282.02V284.62L477.19 280.11V300.63L462.76 306.05V308.65L452.31 312.65C452.12 307.86 450.47 304.65 448.45 305.37C446.28 306.15 444.49 311.2 444.49 316.62C444.49 322.04 446.28 325.72 448.45 324.82C450.47 323.99 452.11 319.5 452.31 314.56L462.76 310.5V313.1L477.19 307.38V422.69L480.77 420V407.02C500.6 393.42 542.97 363.29 556.63 353.2V350.51C542.98 360.45 500.59 390.12 480.77 403.5L480.75 403.51ZM443.77 3.98041C443.37 3.79041 443 3.23041 442.72 2.40041C442.14 0.700406 442.14 -1.6196 442.72 -2.7496C443.28 -3.8396 444.26 -3.3496 444.81 -1.6996C445.38 0.000399828 445.38 2.29039 444.81 3.42039C444.53 3.97039 444.16 4.1704 443.77 3.9704V3.98041ZM448.22 17.0504C447.83 16.8704 447.47 16.3404 447.2 15.5304C446.63 13.8704 446.63 11.5804 447.2 10.4504C447.75 9.35039 448.7 9.8004 449.24 11.4104C449.8 13.0604 449.8 15.3304 449.24 16.4604C448.97 17.0104 448.61 17.2204 448.22 17.0504ZM451.57 28.3404C451.02 26.7204 451.02 24.4604 451.57 23.3204C452.12 22.1804 453.02 22.5804 453.56 24.2004C454.11 25.8104 454.11 28.0504 453.56 29.1904C453.01 30.3404 452.12 29.9604 451.57 28.3404ZM455.83 40.8404C455.29 39.2604 455.29 37.0304 455.83 35.8804C456.37 34.7404 457.24 35.1004 457.77 36.6804C458.3 38.2604 458.3 40.4604 457.77 41.6104C457.24 42.7604 456.36 42.4204 455.83 40.8404Z" fill="#2D6353"/>
</g>
<path d="M507.5 72.1405V396.367L327.5 531.011V5.04001L507.5 72.1405Z" stroke="#D0BB94" stroke-width="7"/>
<circle cx="213.5" cy="146.5" r="73.5" fill="white"/>
<circle cx="70" cy="153" r="57" fill="white"/>
<path d="M0 75.81V385.92L72 419.72V274.53C72 269.46 74.12 265.72 76.73 266.23L166.35 283.57C169.99 284.27 172.99 289.82 172.99 295.89V467.13L323.99 538.01V0L0 75.81ZM45.64 190.12C34.59 189.87 26 173.57 26 153.7C26 133.83 34.59 116.61 45.64 115.16C57.21 113.64 67 129.88 67 151.48C67 173.08 57.21 190.38 45.64 190.12ZM207.01 190.91C187.78 190.56 173 169.8 173 144.53C173 119.26 187.77 96.84 207.01 94.33C227.46 91.66 245 112.25 245 140.49C245 168.73 227.45 191.29 207.01 190.91Z" fill="#D0BB94"/>
</svg>
