<svg width="1075" height="558" viewBox="0 0 1075 558" fill="none" xmlns="http://www.w3.org/2000/svg">
<mask id="mask0_985_136" style="mask-type:luminance" maskUnits="userSpaceOnUse" x="323" y="0" width="187" height="540">
<path d="M510 399L323 539.19V0L510 69.87V399Z" fill="white"/>
</mask>
<g mask="url(#mask0_985_136)">
<path d="M323 11.02L343.01 54.66L405.77 71.54L409.61 81.09C409.34 82.08 409.19 83.26 409.19 84.56C409.19 88.61 410.65 92.21 412.44 92.6C414.23 92.99 415.64 90.07 415.64 86.09C415.64 82.11 414.21 78.51 412.44 78.06C412.28 78.02 412.13 78.01 411.98 78.02L406.96 65.44L406.9 65.55V65.42L344.58 47.65L340.51 38.66L371.5 48.02C371.61 48.61 371.77 49.18 371.99 49.7C372.91 51.86 374.41 52.3 375.32 50.7C376.23 49.09 376.23 46.05 375.32 43.89C374.41 41.73 372.91 41.25 371.99 42.84C371.77 43.22 371.61 43.7 371.49 44.22L338.35 33.92L332.38 20.76L354.63 28.21C354.76 28.84 354.94 29.44 355.17 29.98C356.17 32.27 357.78 32.79 358.77 31.17C359.75 29.55 359.75 26.38 358.77 24.11C357.79 21.81 356.17 21.24 355.17 22.86C354.93 23.24 354.75 23.72 354.63 24.27L330.16 15.86L323 0.0400391V11.02Z" fill="#2D6353"/>
<path d="M375.92 380.52C378.3 379.39 380.21 374.52 380.21 369.64C380.21 364.76 378.3 361.62 375.92 362.64C375.2 362.95 374.53 363.64 373.92 364.55L359.04 340.48V278.33C359.04 278 359 277.7 358.94 277.42L364.17 276.25C364.12 276.55 364.08 276.87 364.08 277.2V304.66C362.22 306.38 360.85 310.24 360.85 314.37C360.85 319.47 362.92 322.94 365.45 322.11C367.98 321.28 369.95 316.56 369.95 311.57C369.95 307.53 368.63 304.52 366.81 303.87V276.58C366.81 276.25 366.77 275.96 366.72 275.68L368.99 275.17C374.01 274.05 378 264.96 378 254.88V198.3C378 188.22 374.01 180.04 368.99 180.06L338.5 180.18C332.61 180.2 327.72 189.39 327.72 200.66V263.93C327.72 275.2 332.62 283.28 338.5 281.96L339.66 281.7C339.6 282.02 339.56 282.35 339.56 282.7V374.89L366.67 414.89C366.34 416.33 366.14 417.85 366.14 419.37C366.14 424.41 368.17 427.35 370.63 425.94C373.09 424.53 375.03 419.4 375.03 414.46C375.03 409.52 373.07 406.54 370.63 407.84C369.89 408.23 369.2 409 368.58 409.99L342.6 371.2V282.02C342.6 281.68 342.56 281.37 342.5 281.07L348.13 279.81C348.07 280.13 348.03 280.45 348.03 280.79V359.07L369.37 391.89C369.05 393.3 368.85 394.8 368.85 396.31C368.85 401.32 370.85 404.35 373.29 403.08C375.73 401.81 377.64 396.81 377.64 391.9C377.64 386.99 375.7 383.93 373.29 385.09C372.56 385.44 371.88 386.17 371.27 387.12L350.97 355.55V280.13C350.97 279.79 350.93 279.49 350.87 279.2L356.29 277.99C356.24 278.3 356.19 278.62 356.19 278.95V343.83L372.04 369.18C371.72 370.57 371.52 372.05 371.52 373.55C371.52 378.53 373.5 381.65 375.9 380.51L375.92 380.52ZM365.46 316.6C364.46 316.92 363.64 315.53 363.64 313.51C363.64 311.49 364.46 309.59 365.46 309.29C366.46 308.99 367.27 310.38 367.27 312.39C367.27 314.4 366.46 316.29 365.46 316.6ZM372.41 415.92C372.41 417.9 371.62 419.96 370.64 420.51C369.66 421.06 368.86 419.88 368.86 417.88C368.86 415.88 369.66 413.82 370.64 413.28C371.62 412.74 372.41 413.93 372.41 415.92ZM375.04 393.22C375.04 395.19 374.26 397.19 373.29 397.69C372.32 398.19 371.53 396.97 371.53 394.98C371.53 393.99 371.73 392.99 372.05 392.18C372.37 391.37 372.81 390.75 373.29 390.51C374.25 390.03 375.04 391.25 375.04 393.22ZM330.93 263.36V200.51C330.93 192.59 334.36 186.09 338.51 186.02L369 185.52C372.56 185.46 375.42 191.25 375.42 198.43V255.35C375.42 262.52 372.57 268.96 369 269.71L338.51 276.13C334.36 277 330.93 271.28 330.93 263.36ZM377.64 370.8C377.64 372.76 376.87 374.71 375.92 375.15C374.97 375.59 374.18 374.34 374.18 372.37C374.18 370.4 374.96 368.44 375.92 368.02C376.88 367.6 377.64 368.85 377.64 370.81V370.8Z" fill="#2D6353"/>
<path d="M370.77 214.01C370.77 203.54 366.56 195.22 361.26 195.43L347.06 195.98C341.27 196.2 336.46 205.55 336.46 216.85V245.8C336.46 257.1 341.26 265.35 347.06 264.26L361.26 261.58C366.56 260.58 370.77 251.3 370.77 240.84V214.02V214.01Z" fill="#2D6353"/>
<path d="M382.3 449.49C382.3 457.55 385.41 462 389.17 459.44C392.86 456.93 395.82 448.58 395.82 440.77C395.82 433.84 393.49 429.5 390.39 430.18V167.24C390.39 166.55 390.26 165.89 390.03 165.39L384.99 154.49C384.75 153.96 384.43 153.69 384.11 153.67L323 150.07V156.11L383.59 158.92L387.95 168.26V431.69C384.76 434.88 382.3 442.35 382.3 449.5V449.49ZM393.44 442.31C393.44 447.32 391.54 452.66 389.17 454.24C386.8 455.82 384.81 452.99 384.81 447.87C384.81 442.75 386.78 437.37 389.17 435.89C391.56 434.41 393.44 437.31 393.44 442.31Z" fill="#2D6353"/>
<path d="M400.47 427.74C403.97 425.57 406.77 417.66 406.77 410.07C406.77 403.33 404.56 398.94 401.63 399.37V143.58C401.63 142.91 401.51 142.26 401.29 141.76L396.52 130.88C396.29 130.35 395.99 130.07 395.68 130.03L323 121.41V127.45L395.19 135.1L399.31 144.43V400.64C396.3 403.51 393.97 410.59 393.97 417.55C393.97 425.39 396.91 429.94 400.47 427.74ZM400.47 404.83C402.71 403.57 404.51 406.52 404.51 411.39C404.51 416.26 402.71 421.32 400.47 422.68C398.23 424.04 396.35 421.14 396.35 416.17C396.35 411.2 398.21 406.11 400.47 404.83Z" fill="#2D6353"/>
<path d="M411.16 397.73C414.47 395.87 417.13 388.37 417.13 380.98C417.13 374.42 415.04 369.98 412.26 370.2V121.18C412.26 120.53 412.15 119.89 411.94 119.39L407.42 108.54C407.2 108.02 406.91 107.72 406.63 107.67L323 92.7598V98.7998L406.16 112.58L410.06 121.88V371.27C407.2 373.85 405 380.57 405 387.34C405 394.97 407.78 399.61 411.16 397.72V397.73ZM411.16 375.43C413.28 374.36 414.99 377.36 414.99 382.11C414.99 386.86 413.28 391.65 411.16 392.81C409.04 393.97 407.25 391.01 407.25 386.17C407.25 381.33 409.01 376.51 411.16 375.43Z" fill="#2D6353"/>
<path d="M480.75 403.51V386.81C500.58 374.46 542.95 346.98 556.61 337.75V335.06C542.96 344.14 500.57 371.16 480.75 383.29V364.4C500.86 353.27 518.81 342.88 534.52 333.36C534.73 337 535.73 339.25 536.93 338.54C538.26 337.74 539.33 333.53 539.33 329.14C539.33 324.75 538.26 321.77 536.93 322.49C535.74 323.14 534.73 326.55 534.52 330.43C518.81 339.77 500.86 349.97 480.76 360.88V347.64C480.76 347.64 480.84 347.66 480.88 347.64C499.23 337.64 515.72 328.99 530.22 321.7C530.44 325.41 531.47 327.76 532.7 327.08C534.07 326.32 535.18 322.09 535.18 317.64C535.18 313.19 534.07 310.1 532.7 310.78C531.47 311.38 530.44 314.79 530.22 318.73C523.23 322.17 515.79 325.91 507.92 329.95C499.43 334.31 490.41 339.04 480.87 344.13C480.83 344.15 480.8 344.21 480.76 344.25V330.96C480.76 330.96 480.81 330.98 480.84 330.96C497.33 323.6 512.74 316.28 525.77 309.69C526 313.46 527.06 315.88 528.33 315.25C529.75 314.54 530.89 310.29 530.89 305.76C530.89 301.23 529.75 298.05 528.33 298.67C527.06 299.23 525.99 302.66 525.77 306.66C512.75 313.11 497.34 320.26 480.86 327.44C480.86 327.44 480.8 327.51 480.77 327.53V314.23C480.77 314.23 480.85 314.27 480.89 314.25C495.79 307.58 508.91 302.06 521.18 297.24C521.41 301.1 522.52 303.62 523.83 303.03C525.3 302.38 526.48 298.11 526.48 293.51C526.48 288.91 525.3 285.62 523.83 286.19C522.52 286.7 521.41 290.12 521.18 294.17C515.25 296.43 509.13 298.85 502.72 301.49C495.84 304.31 488.61 307.38 480.89 310.75C480.85 310.77 480.82 310.82 480.78 310.86V200.65L457.13 137.68C457.18 137.53 457.21 137.34 457.21 137.13V44.2004C457.62 44.1704 458.01 43.8404 458.33 43.1604C459.15 41.3904 459.15 38.0004 458.33 35.5704C457.92 34.3504 457.38 33.6004 456.84 33.3804C456.3 33.1604 455.75 33.4504 455.34 34.3304C454.51 36.1004 454.51 39.5404 455.34 41.9804C455.66 42.9204 456.06 43.5604 456.47 43.9104V135.93L452.98 126.65V31.7904C453.4 31.7804 453.8 31.4504 454.13 30.7704C454.97 29.0104 454.97 25.5804 454.13 23.0904C453.71 21.8404 453.16 21.0704 452.6 20.8204C452.04 20.5704 451.49 20.8504 451.06 21.7304C450.2 23.4904 450.2 26.9704 451.06 29.4804C451.39 30.4404 451.8 31.1104 452.22 31.4804V124.63L448.62 115.05C448.63 114.96 448.64 114.87 448.64 114.78V19.0204C449.08 19.0304 449.49 18.7404 449.82 18.0804C450.68 16.3304 450.68 12.8504 449.82 10.3104C449.4 9.07039 448.85 8.23039 448.25 7.95039C447.65 7.67039 447.09 7.9704 446.67 8.81039C446.25 9.6604 446.01 10.9404 446.01 12.4204C446.01 13.9004 446.24 15.4104 446.67 16.6504C447 17.6104 447.42 18.2904 447.86 18.6704V113.02L444.2 103.27V5.9904C444.65 6.0204 445.08 5.7404 445.41 5.0804C445.84 4.2404 446.07 2.9604 446.07 1.4704C446.07 -0.0196075 445.84 -1.5296 445.41 -2.7896C444.98 -4.0596 444.41 -4.9296 443.8 -5.23959C443.19 -5.54959 442.61 -5.2596 442.18 -4.4196C441.28 -2.6796 441.28 0.890396 442.18 3.5204C442.52 4.5004 442.95 5.20039 443.4 5.6104V101.15L438.67 88.5504V-115.47L438.58 -115.54L438.67 -115.69L430.52 -141.96C430.56 -142.53 430.58 -143.11 430.58 -143.74C430.58 -150.83 428.13 -158.79 425.06 -161.55C421.94 -164.35 419.38 -160.73 419.38 -153.43C419.38 -146.13 421.94 -138.07 425.06 -135.48C426.05 -134.66 426.97 -134.5 427.77 -134.88L434.08 -114.82V91.9204L477.19 204.95V218.81L462.76 220.6V223.2L446.89 225.29C446.69 220.38 444.99 216.69 442.91 216.92C440.67 217.16 438.82 221.84 438.82 227.35C438.82 232.86 440.67 237.04 442.91 236.68C444.99 236.34 446.69 232.2 446.89 227.24L462.76 225.06V227.66L477.19 225.57V246.09L462.76 249.09V251.69L452.31 253.94C452.12 249.12 450.47 245.63 448.45 246.01C446.28 246.42 444.49 251.18 444.49 256.6C444.49 262.02 446.28 266 448.45 265.46C450.47 264.96 452.11 260.75 452.31 255.85L462.76 253.54V256.14L477.19 252.84V273.36L462.76 277.57V280.17L439.3 287.19C439.09 282.21 437.32 278.75 435.15 279.34C432.81 279.98 430.88 285.09 430.88 290.72C430.88 296.35 432.81 300.29 435.15 299.52C437.32 298.8 439.09 294.27 439.3 289.17L462.76 282.02V284.62L477.19 280.11V300.63L462.76 306.05V308.65L452.31 312.65C452.12 307.86 450.47 304.65 448.45 305.37C446.28 306.15 444.49 311.2 444.49 316.62C444.49 322.04 446.28 325.72 448.45 324.82C450.47 323.99 452.11 319.5 452.31 314.56L462.76 310.5V313.1L477.19 307.38V422.69L480.77 420V407.02C500.6 393.42 542.97 363.29 556.63 353.2V350.51C542.98 360.45 500.59 390.12 480.77 403.5L480.75 403.51ZM443.77 3.98041C443.37 3.79041 443 3.23041 442.72 2.40041C442.14 0.700409 442.14 -1.6196 442.72 -2.7496C443.28 -3.8396 444.26 -3.34959 444.81 -1.6996C445.38 0.000396729 445.38 2.29039 444.81 3.42039C444.53 3.9704 444.16 4.17039 443.77 3.9704V3.98041ZM448.22 17.0504C447.83 16.8704 447.47 16.3404 447.2 15.5304C446.63 13.8704 446.63 11.5804 447.2 10.4504C447.75 9.35039 448.7 9.8004 449.24 11.4104C449.8 13.0604 449.8 15.3304 449.24 16.4604C448.97 17.0104 448.61 17.2204 448.22 17.0504ZM451.57 28.3404C451.02 26.7204 451.02 24.4604 451.57 23.3204C452.12 22.1804 453.02 22.5804 453.56 24.2004C454.11 25.8104 454.11 28.0504 453.56 29.1904C453.01 30.3404 452.12 29.9604 451.57 28.3404ZM455.83 40.8404C455.29 39.2604 455.29 37.0304 455.83 35.8804C456.37 34.7404 457.24 35.1004 457.77 36.6804C458.3 38.2604 458.3 40.4604 457.77 41.6104C457.24 42.7604 456.36 42.4204 455.83 40.8404Z" fill="#2D6353"/>
</g>
<path d="M507.5 72.1405V396.367L327.5 531.011V5.04001L507.5 72.1405Z" stroke="#D0BB94" stroke-width="7"/>
<path d="M0 75.81V385.92L72 419.72V274.53C72 269.46 74.12 265.72 76.73 266.23L166.35 283.57C169.99 284.27 172.99 289.82 172.99 295.89V467.13L323.99 538.01V0L0 75.81ZM45.64 190.12C34.59 189.87 26 173.57 26 153.7C26 133.83 34.59 116.61 45.64 115.16C57.21 113.64 67 129.88 67 151.48C67 173.08 57.21 190.38 45.64 190.12ZM207.01 190.91C187.78 190.56 173 169.8 173 144.53C173 119.26 187.77 96.84 207.01 94.33C227.46 91.66 245 112.25 245 140.49C245 168.73 227.45 191.29 207.01 190.91Z" fill="#D0BB94"/>
<path d="M582.56 104.435L575.42 103.5V99.845H586.045C587.915 99.845 590.323 99.7317 593.27 99.505C595.99 99.2783 598.002 99.165 599.305 99.165C606.672 99.165 611.998 100.383 615.285 102.82C618.628 105.257 620.3 108.798 620.3 113.445C620.3 117.412 619.195 120.868 616.985 123.815C614.832 126.705 611.743 128.547 607.72 129.34C613.047 129.17 617.212 130.445 620.215 133.165C623.275 135.885 624.805 139.54 624.805 144.13C624.805 149.797 622.793 154.443 618.77 158.07C614.803 161.697 608.287 163.51 599.22 163.51C598.143 163.51 596.415 163.453 594.035 163.34C591.088 163.113 588.312 163 585.705 163H575.25V159.345L582.56 158.58V104.435ZM589.53 127.895C590.437 127.952 592.222 127.98 594.885 127.98H599.985C604.292 127.98 607.578 126.875 609.845 124.665C612.112 122.455 613.245 119.253 613.245 115.06C613.245 110.923 612.112 107.892 609.845 105.965C607.635 104.038 603.81 103.075 598.37 103.075C596.33 103.075 594.233 103.188 592.08 103.415C590.72 103.528 589.87 103.585 589.53 103.585V127.895ZM589.53 158.75C591.003 159.203 594.205 159.43 599.135 159.43C605.482 159.43 610.072 158.24 612.905 155.86C615.738 153.423 617.155 149.938 617.155 145.405C617.155 140.872 615.937 137.585 613.5 135.545C611.063 133.448 607.125 132.4 601.685 132.4H595.395C592.335 132.4 590.38 132.428 589.53 132.485V158.75ZM670.864 163.765C669.391 163.765 668.314 163.51 667.634 163C666.954 162.49 666.614 161.555 666.614 160.195V156.88C664.518 158.75 662.053 160.393 659.219 161.81C656.386 163.227 653.553 163.935 650.719 163.935C645.563 163.935 641.879 162.49 639.669 159.6C637.516 156.71 636.439 152.007 636.439 145.49V120.5L631.424 119.055V115.91L641.709 114.805H641.794L643.324 115.825V144.47C643.324 148.04 643.579 150.845 644.089 152.885C644.599 154.868 645.534 156.342 646.894 157.305C648.254 158.268 650.238 158.75 652.844 158.75C655.338 158.75 657.718 158.212 659.984 157.135C662.251 156.058 664.206 154.783 665.849 153.31V120.5L659.389 119.055V115.91L670.694 114.805H670.779L672.734 115.825V159.26H678.004L677.919 162.49C677.636 162.547 676.814 162.773 675.454 163.17C674.094 163.567 672.564 163.765 670.864 163.765ZM695.253 106.9C692.193 106.9 690.663 105.285 690.663 102.055C690.663 100.412 691.145 99.08 692.108 98.06C693.072 96.9833 694.375 96.445 696.018 96.445C697.718 96.445 698.937 96.9267 699.673 97.89C700.41 98.7967 700.778 99.93 700.778 101.29C700.778 103.047 700.297 104.435 699.333 105.455C698.427 106.418 697.095 106.9 695.338 106.9H695.253ZM692.533 121.435L685.903 119.99V116.165L697.548 114.805H697.718L699.418 116.165V158.75L706.813 159.345V163H685.053V159.345L692.533 158.665V121.435ZM719.837 98.74L712.612 97.975V94.83L725.022 93.385H725.107L726.722 94.49V158.75L734.712 159.345V163H712.357V159.345L719.837 158.665V98.74ZM759.541 163.935C756.197 163.935 753.109 163.085 750.276 161.385C747.442 159.628 745.176 156.993 743.476 153.48C741.776 149.967 740.926 145.66 740.926 140.56C740.926 135.687 741.917 131.295 743.901 127.385C745.884 123.418 748.689 120.302 752.316 118.035C755.999 115.712 760.277 114.55 765.151 114.55C768.267 114.55 771.271 114.89 774.161 115.57V98.74L765.321 97.89V94.83L779.261 93.385H779.431L781.046 94.575V159.175H786.231V162.49C785.947 162.547 784.984 162.773 783.341 163.17C781.697 163.567 779.941 163.765 778.071 163.765C776.767 163.765 775.832 163.538 775.266 163.085C774.756 162.632 774.501 161.64 774.501 160.11V157.135C772.744 159.062 770.591 160.677 768.041 161.98C765.547 163.283 762.714 163.935 759.541 163.935ZM762.346 158.58C764.782 158.58 767.077 158.013 769.231 156.88C771.441 155.69 773.084 154.387 774.161 152.97V121.69C773.707 120.897 772.517 120.217 770.591 119.65C768.721 119.083 766.709 118.8 764.556 118.8C759.682 118.8 755.772 120.557 752.826 124.07C749.879 127.527 748.406 132.797 748.406 139.88C748.406 146.227 749.709 150.93 752.316 153.99C754.922 157.05 758.266 158.58 762.346 158.58ZM803.33 106.9C800.27 106.9 798.74 105.285 798.74 102.055C798.74 100.412 799.221 99.08 800.185 98.06C801.148 96.9833 802.451 96.445 804.095 96.445C805.795 96.445 807.013 96.9267 807.75 97.89C808.486 98.7967 808.855 99.93 808.855 101.29C808.855 103.047 808.373 104.435 807.41 105.455C806.503 106.418 805.171 106.9 803.415 106.9H803.33ZM800.61 121.435L793.98 119.99V116.165L805.625 114.805H805.795L807.495 116.165V158.75L814.89 159.345V163H793.13V159.345L800.61 158.665V121.435ZM826.298 121.435L819.753 119.99V116.165L830.548 114.805H830.803L832.418 116.165V119.905L832.333 122.03C834.43 120.217 837.206 118.545 840.663 117.015C844.12 115.485 847.321 114.72 850.268 114.72C853.895 114.72 856.671 115.428 858.598 116.845C860.581 118.205 861.941 120.33 862.678 123.22C863.471 126.053 863.868 129.878 863.868 134.695V158.75L870.243 159.345V163H851.288V159.345L856.983 158.75V134.61C856.983 131.04 856.728 128.235 856.218 126.195C855.765 124.155 854.83 122.625 853.413 121.605C852.053 120.528 850.041 119.99 847.378 119.99C845.111 119.99 842.646 120.557 839.983 121.69C837.376 122.823 835.11 124.155 833.183 125.685V158.665L839.388 159.345V163H820.603V159.345L826.298 158.665V121.435ZM896.62 185.95C883.247 185.95 876.56 181.7 876.56 173.2C876.56 170.65 877.325 168.327 878.855 166.23C880.442 164.133 882.312 162.49 884.465 161.3C881.802 159.883 880.47 157.532 880.47 154.245C880.47 152.148 881.065 150.193 882.255 148.38C883.445 146.51 884.975 145.093 886.845 144.13C884.182 142.883 882.085 141.127 880.555 138.86C879.082 136.537 878.345 133.845 878.345 130.785C878.345 127.498 879.252 124.637 881.065 122.2C882.879 119.707 885.23 117.808 888.12 116.505C891.067 115.202 894.127 114.55 897.3 114.55C902.57 114.55 906.792 115.712 909.965 118.035C910.815 117.242 912.119 116.477 913.875 115.74C915.689 114.947 917.615 114.55 919.655 114.55H922.46V120.84H912.77C914.414 123.107 915.235 125.855 915.235 129.085C915.235 132.428 914.385 135.403 912.685 138.01C910.985 140.56 908.69 142.543 905.8 143.96C902.967 145.377 899.822 146.085 896.365 146.085C894.042 146.085 891.917 145.83 889.99 145.32C888.97 146.113 888.149 147.048 887.525 148.125C886.959 149.145 886.675 150.193 886.675 151.27C886.675 153.423 887.355 154.925 888.715 155.775C890.132 156.625 892.569 157.05 896.025 157.05H906.055C911.325 157.05 915.207 158.07 917.7 160.11C920.25 162.15 921.525 165.012 921.525 168.695C921.525 171.755 920.42 174.588 918.21 177.195C916 179.858 912.969 181.983 909.115 183.57C905.319 185.157 901.154 185.95 896.62 185.95ZM897.215 141.92C904.412 141.92 908.01 137.953 908.01 130.02C908.01 122.483 904.27 118.715 896.79 118.715C889.31 118.715 885.57 122.427 885.57 129.85C885.57 133.42 886.534 136.338 888.46 138.605C890.387 140.815 893.305 141.92 897.215 141.92ZM897.045 181.615C900.105 181.615 903.024 181.162 905.8 180.255C908.577 179.405 910.815 178.13 912.515 176.43C914.215 174.787 915.065 172.86 915.065 170.65C915.065 168.893 914.782 167.477 914.215 166.4C913.705 165.323 912.657 164.473 911.07 163.85C909.54 163.283 907.302 163 904.355 163H893.815C891.095 163 889.027 162.83 887.61 162.49C884.834 165.153 883.445 168.27 883.445 171.84C883.445 175.07 884.465 177.507 886.505 179.15C888.545 180.793 892.059 181.615 897.045 181.615ZM575.25 266.345L582.56 265.58V211.35L575.76 210.33V206.845H586.13C587.66 206.845 589.842 206.732 592.675 206.505C595.395 206.278 597.407 206.165 598.71 206.165C606.813 206.165 612.593 207.525 616.05 210.245C619.507 212.965 621.235 217.158 621.235 222.825C621.235 226.962 620.073 230.702 617.75 234.045C615.483 237.388 612.395 239.627 608.485 240.76C609.958 241.723 611.432 243.338 612.905 245.605C614.435 247.815 616.305 250.903 618.515 254.87C620.442 258.327 621.972 260.933 623.105 262.69C624.295 264.39 625.343 265.325 626.25 265.495L629.82 266.43V270H619.875C618.968 270 617.92 269.037 616.73 267.11C615.54 265.183 613.868 262.067 611.715 257.76C609.392 253.057 607.465 249.458 605.935 246.965C604.462 244.472 602.988 242.8 601.515 241.95C594.602 241.95 590.607 241.922 589.53 241.865V265.58L598.285 266.345V270H575.25V266.345ZM601.005 237.785C604.915 237.785 608.003 236.567 610.27 234.13C612.537 231.693 613.67 228.123 613.67 223.42C613.67 219.283 612.508 216.082 610.185 213.815C607.862 211.492 603.81 210.33 598.03 210.33C596.047 210.33 594.092 210.443 592.165 210.67C590.805 210.783 589.927 210.84 589.53 210.84V237.7C590.55 237.757 592.59 237.785 595.65 237.785H601.005ZM633.761 246.115C633.761 241.185 634.781 236.85 636.821 233.11C638.917 229.37 641.637 226.508 644.981 224.525C648.381 222.542 651.922 221.55 655.606 221.55C662.746 221.55 668.016 223.873 671.416 228.52C674.872 233.167 676.601 239.117 676.601 246.37C676.601 251.3 675.552 255.635 673.456 259.375C671.416 263.115 668.696 265.977 665.296 267.96C661.952 269.943 658.439 270.935 654.756 270.935C647.616 270.935 642.317 268.612 638.861 263.965C635.461 259.318 633.761 253.368 633.761 246.115ZM655.181 266.515C659.544 266.515 662.916 264.843 665.296 261.5C667.676 258.157 668.866 253.283 668.866 246.88C668.866 240.76 667.761 235.745 665.551 231.835C663.341 227.925 659.912 225.97 655.266 225.97C650.902 225.97 647.502 227.642 645.066 230.985C642.686 234.328 641.496 239.202 641.496 245.605C641.496 251.782 642.601 256.825 644.811 260.735C647.077 264.588 650.534 266.515 655.181 266.515ZM680.232 201.83L692.642 200.385H692.812L694.427 201.575V227.415C696.184 225.772 698.281 224.383 700.717 223.25C703.211 222.117 705.959 221.55 708.962 221.55C712.306 221.55 715.366 222.372 718.142 224.015C720.976 225.658 723.242 228.208 724.942 231.665C726.699 235.122 727.577 239.457 727.577 244.67C727.577 249.543 726.586 253.992 724.602 258.015C722.619 261.982 719.786 265.127 716.102 267.45C712.419 269.773 708.169 270.935 703.352 270.935C699.839 270.935 696.496 270.567 693.322 269.83C690.149 269.093 688.222 268.385 687.542 267.705V205.74L680.232 204.975V201.83ZM706.157 226.735C703.777 226.735 701.539 227.302 699.442 228.435C697.346 229.568 695.674 230.815 694.427 232.175V263.625C694.824 264.532 695.929 265.268 697.742 265.835C699.612 266.345 701.681 266.6 703.947 266.6C708.821 266.6 712.731 264.815 715.677 261.245C718.624 257.618 720.097 252.32 720.097 245.35C720.097 239.117 718.766 234.47 716.102 231.41C713.496 228.293 710.181 226.735 706.157 226.735ZM735.279 246.115C735.279 241.185 736.299 236.85 738.339 233.11C740.436 229.37 743.156 226.508 746.499 224.525C749.899 222.542 753.441 221.55 757.124 221.55C764.264 221.55 769.534 223.873 772.934 228.52C776.391 233.167 778.119 239.117 778.119 246.37C778.119 251.3 777.071 255.635 774.974 259.375C772.934 263.115 770.214 265.977 766.814 267.96C763.471 269.943 759.957 270.935 756.274 270.935C749.134 270.935 743.836 268.612 740.379 263.965C736.979 259.318 735.279 253.368 735.279 246.115ZM756.699 266.515C761.062 266.515 764.434 264.843 766.814 261.5C769.194 258.157 770.384 253.283 770.384 246.88C770.384 240.76 769.279 235.745 767.069 231.835C764.859 227.925 761.431 225.97 756.784 225.97C752.421 225.97 749.021 227.642 746.584 230.985C744.204 234.328 743.014 239.202 743.014 245.605C743.014 251.782 744.119 256.825 746.329 260.735C748.596 264.588 752.052 266.515 756.699 266.515ZM800.536 270.935C797.533 270.935 795.266 270.255 793.736 268.895C792.206 267.478 791.441 264.985 791.441 261.415V227.84H784.981V224.525C787.814 223.902 789.458 223.448 789.911 223.165C790.761 222.712 791.384 221.833 791.781 220.53C792.121 219.68 792.574 218.15 793.141 215.94C793.708 213.73 794.133 212.002 794.416 210.755H798.326V222.825H813.371V227.84H798.326V255.38C798.326 258.667 798.439 260.99 798.666 262.35C798.893 263.653 799.346 264.503 800.026 264.9C800.706 265.297 801.896 265.495 803.596 265.495C805.239 265.495 807.081 265.268 809.121 264.815C811.161 264.362 812.691 263.88 813.711 263.37L814.816 266.6C813.513 267.62 811.359 268.612 808.356 269.575C805.353 270.482 802.746 270.935 800.536 270.935ZM830.307 213.9C827.247 213.9 825.717 212.285 825.717 209.055C825.717 207.412 826.199 206.08 827.162 205.06C828.125 203.983 829.429 203.445 831.072 203.445C832.772 203.445 833.99 203.927 834.727 204.89C835.464 205.797 835.832 206.93 835.832 208.29C835.832 210.047 835.35 211.435 834.387 212.455C833.48 213.418 832.149 213.9 830.392 213.9H830.307ZM827.587 228.435L820.957 226.99V223.165L832.602 221.805H832.772L834.472 223.165V265.75L841.867 266.345V270H820.107V266.345L827.587 265.665V228.435ZM846.986 246.71C846.986 242.12 847.864 237.927 849.621 234.13C851.434 230.277 854.097 227.217 857.611 224.95C861.181 222.683 865.516 221.55 870.616 221.55C872.826 221.55 874.979 221.833 877.076 222.4C879.172 222.91 880.986 223.477 882.516 224.1L882.176 236.255H877.926L876.141 228.095C875.801 226.395 873.364 225.545 868.831 225.545C864.411 225.545 860.869 227.245 858.206 230.645C855.599 234.045 854.296 238.692 854.296 244.585C854.296 251.612 855.712 256.938 858.546 260.565C861.379 264.192 865.062 266.005 869.596 266.005C871.976 266.005 874.271 265.608 876.481 264.815C878.747 264.022 880.617 263.115 882.091 262.095L883.451 264.9C881.807 266.543 879.541 267.96 876.651 269.15C873.761 270.34 870.899 270.935 868.066 270.935C863.589 270.935 859.764 269.887 856.591 267.79C853.417 265.637 851.009 262.747 849.366 259.12C847.779 255.437 846.986 251.3 846.986 246.71ZM898.138 263.285C898.761 264.248 900.064 265.098 902.048 265.835C904.031 266.572 906.156 266.94 908.423 266.94C915.336 266.94 918.793 264.39 918.793 259.29C918.793 256.967 917.829 255.097 915.903 253.68C913.976 252.207 910.689 250.592 906.043 248.835C901.453 247.192 898.109 245.237 896.013 242.97C893.916 240.703 892.868 237.672 892.868 233.875C892.868 231.438 893.604 229.313 895.078 227.5C896.608 225.687 898.619 224.298 901.113 223.335C903.663 222.315 906.411 221.805 909.358 221.805C912.248 221.805 914.656 222.06 916.583 222.57C918.566 223.08 920.521 223.703 922.448 224.44V234.555H918.283L916.753 228.35C916.356 227.613 915.336 226.99 913.693 226.48C912.106 225.97 910.349 225.715 908.423 225.715C905.703 225.715 903.493 226.338 901.793 227.585C900.093 228.775 899.243 230.39 899.243 232.43C899.243 234.243 899.668 235.745 900.518 236.935C901.368 238.125 902.416 239.088 903.663 239.825C904.909 240.505 906.638 241.298 908.848 242.205L910.463 242.885C913.693 244.132 916.299 245.322 918.283 246.455C920.266 247.532 921.909 248.977 923.213 250.79C924.516 252.547 925.168 254.757 925.168 257.42C925.168 261.613 923.553 264.928 920.323 267.365C917.149 269.745 912.899 270.935 907.573 270.935C905.136 270.935 902.359 270.538 899.243 269.745C896.126 268.952 893.803 268.158 892.273 267.365V256.655H896.863L898.138 263.285ZM582.815 318.435L575.675 317.5V313.845H598.285V317.5L589.785 318.435V372.58L614.01 371.9L618.77 358.64L622.85 359.32L619.705 377H575.505V373.345L582.815 372.58V318.435ZM628.958 364.59C628.958 359.093 631.678 355.127 637.118 352.69C642.558 350.197 649.33 348.865 657.433 348.695V346.06C657.433 343.17 657.121 340.903 656.498 339.26C655.931 337.56 654.911 336.342 653.438 335.605C651.965 334.812 649.896 334.415 647.233 334.415C644.343 334.415 641.708 334.868 639.328 335.775C637.005 336.625 634.738 337.673 632.528 338.92L630.658 335.18C631.281 334.613 632.585 333.82 634.568 332.8C636.551 331.78 638.818 330.873 641.368 330.08C643.918 329.287 646.383 328.89 648.763 328.89C652.616 328.89 655.648 329.428 657.858 330.505C660.125 331.582 661.74 333.31 662.703 335.69C663.723 338.07 664.233 341.272 664.233 345.295V373.345H669.503V376.49C666.386 377.34 663.751 377.765 661.598 377.765C660.238 377.765 659.303 377.538 658.793 377.085C658.283 376.688 658.028 375.725 658.028 374.195V371.05C655.988 372.863 653.75 374.478 651.313 375.895C648.933 377.255 646.213 377.935 643.153 377.935C639.073 377.935 635.673 376.802 632.953 374.535C630.29 372.268 628.958 368.953 628.958 364.59ZM645.703 372.92C647.29 372.92 649.188 372.41 651.398 371.39C653.608 370.37 655.62 369.152 657.433 367.735V352.69C650.576 352.747 645.363 353.767 641.793 355.75C638.28 357.733 636.523 360.397 636.523 363.74C636.523 366.97 637.345 369.322 638.988 370.795C640.631 372.212 642.87 372.92 645.703 372.92ZM671.682 308.83L684.093 307.385H684.263L685.878 308.575V334.415C687.634 332.772 689.731 331.383 692.168 330.25C694.661 329.117 697.409 328.55 700.413 328.55C703.756 328.55 706.816 329.372 709.593 331.015C712.426 332.658 714.693 335.208 716.393 338.665C718.149 342.122 719.028 346.457 719.028 351.67C719.028 356.543 718.036 360.992 716.053 365.015C714.069 368.982 711.236 372.127 707.553 374.45C703.869 376.773 699.619 377.935 694.803 377.935C691.289 377.935 687.946 377.567 684.773 376.83C681.599 376.093 679.673 375.385 678.993 374.705V312.74L671.682 311.975V308.83ZM697.608 333.735C695.228 333.735 692.989 334.302 690.893 335.435C688.796 336.568 687.124 337.815 685.878 339.175V370.625C686.274 371.532 687.379 372.268 689.193 372.835C691.063 373.345 693.131 373.6 695.398 373.6C700.271 373.6 704.181 371.815 707.128 368.245C710.074 364.618 711.548 359.32 711.548 352.35C711.548 346.117 710.216 341.47 707.553 338.41C704.946 335.293 701.631 333.735 697.608 333.735ZM726.729 353.115C726.729 348.185 727.749 343.85 729.789 340.11C731.886 336.37 734.606 333.508 737.949 331.525C741.349 329.542 744.891 328.55 748.574 328.55C755.714 328.55 760.984 330.873 764.384 335.52C767.841 340.167 769.569 346.117 769.569 353.37C769.569 358.3 768.521 362.635 766.424 366.375C764.384 370.115 761.664 372.977 758.264 374.96C754.921 376.943 751.408 377.935 747.724 377.935C740.584 377.935 735.286 375.612 731.829 370.965C728.429 366.318 726.729 360.368 726.729 353.115ZM748.149 373.515C752.513 373.515 755.884 371.843 758.264 368.5C760.644 365.157 761.834 360.283 761.834 353.88C761.834 347.76 760.729 342.745 758.519 338.835C756.309 334.925 752.881 332.97 748.234 332.97C743.871 332.97 740.471 334.642 738.034 337.985C735.654 341.328 734.464 346.202 734.464 352.605C734.464 358.782 735.569 363.825 737.779 367.735C740.046 371.588 743.503 373.515 748.149 373.515ZM777.621 373.43L784.421 372.92V335.435L777.876 333.99V330.165L788.671 328.805H788.841L790.456 330.165V331.525L790.286 337.985H790.456C790.569 337.872 791.306 337.022 792.666 335.435C794.083 333.792 796.151 332.233 798.871 330.76C801.648 329.287 804.424 328.55 807.201 328.55C808.108 328.55 808.958 328.663 809.751 328.89V336.37C809.524 336.2 809.014 336.03 808.221 335.86C807.484 335.69 806.691 335.605 805.841 335.605C802.611 335.605 799.863 336.087 797.596 337.05C795.329 338.013 793.233 339.203 791.306 340.62V372.835L802.611 373.515V377H777.621V373.43ZM816.058 364.59C816.058 359.093 818.778 355.127 824.218 352.69C829.658 350.197 836.429 348.865 844.533 348.695V346.06C844.533 343.17 844.221 340.903 843.598 339.26C843.031 337.56 842.011 336.342 840.538 335.605C839.064 334.812 836.996 334.415 834.333 334.415C831.443 334.415 828.808 334.868 826.428 335.775C824.104 336.625 821.838 337.673 819.628 338.92L817.758 335.18C818.381 334.613 819.684 333.82 821.668 332.8C823.651 331.78 825.918 330.873 828.468 330.08C831.018 329.287 833.483 328.89 835.863 328.89C839.716 328.89 842.748 329.428 844.958 330.505C847.224 331.582 848.839 333.31 849.803 335.69C850.823 338.07 851.333 341.272 851.333 345.295V373.345H856.603V376.49C853.486 377.34 850.851 377.765 848.698 377.765C847.338 377.765 846.403 377.538 845.893 377.085C845.383 376.688 845.128 375.725 845.128 374.195V371.05C843.088 372.863 840.849 374.478 838.413 375.895C836.033 377.255 833.313 377.935 830.253 377.935C826.173 377.935 822.773 376.802 820.053 374.535C817.389 372.268 816.058 368.953 816.058 364.59ZM832.803 372.92C834.389 372.92 836.288 372.41 838.498 371.39C840.708 370.37 842.719 369.152 844.533 367.735V352.69C837.676 352.747 832.463 353.767 828.893 355.75C825.379 357.733 823.623 360.397 823.623 363.74C823.623 366.97 824.444 369.322 826.088 370.795C827.731 372.212 829.969 372.92 832.803 372.92ZM877.567 377.935C874.564 377.935 872.297 377.255 870.767 375.895C869.237 374.478 868.472 371.985 868.472 368.415V334.84H862.012V331.525C864.845 330.902 866.489 330.448 866.942 330.165C867.792 329.712 868.415 328.833 868.812 327.53C869.152 326.68 869.605 325.15 870.172 322.94C870.739 320.73 871.164 319.002 871.447 317.755H875.357V329.825H890.402V334.84H875.357V362.38C875.357 365.667 875.47 367.99 875.697 369.35C875.924 370.653 876.377 371.503 877.057 371.9C877.737 372.297 878.927 372.495 880.627 372.495C882.27 372.495 884.112 372.268 886.152 371.815C888.192 371.362 889.722 370.88 890.742 370.37L891.847 373.6C890.544 374.62 888.39 375.612 885.387 376.575C882.384 377.482 879.777 377.935 877.567 377.935ZM897.393 353.115C897.393 348.185 898.413 343.85 900.453 340.11C902.55 336.37 905.27 333.508 908.613 331.525C912.013 329.542 915.555 328.55 919.238 328.55C926.378 328.55 931.648 330.873 935.048 335.52C938.505 340.167 940.233 346.117 940.233 353.37C940.233 358.3 939.185 362.635 937.088 366.375C935.048 370.115 932.328 372.977 928.928 374.96C925.585 376.943 922.072 377.935 918.388 377.935C911.248 377.935 905.95 375.612 902.493 370.965C899.093 366.318 897.393 360.368 897.393 353.115ZM918.813 373.515C923.177 373.515 926.548 371.843 928.928 368.5C931.308 365.157 932.498 360.283 932.498 353.88C932.498 347.76 931.393 342.745 929.183 338.835C926.973 334.925 923.545 332.97 918.898 332.97C914.535 332.97 911.135 334.642 908.698 337.985C906.318 341.328 905.128 346.202 905.128 352.605C905.128 358.782 906.233 363.825 908.443 367.735C910.71 371.588 914.167 373.515 918.813 373.515ZM948.285 373.43L955.085 372.92V335.435L948.54 333.99V330.165L959.335 328.805H959.505L961.12 330.165V331.525L960.95 337.985H961.12C961.233 337.872 961.97 337.022 963.33 335.435C964.747 333.792 966.815 332.233 969.535 330.76C972.312 329.287 975.088 328.55 977.865 328.55C978.772 328.55 979.622 328.663 980.415 328.89V336.37C980.188 336.2 979.678 336.03 978.885 335.86C978.148 335.69 977.355 335.605 976.505 335.605C973.275 335.605 970.527 336.087 968.26 337.05C965.993 338.013 963.897 339.203 961.97 340.62V372.835L973.275 373.515V377H948.285V373.43ZM992.587 398.165C991.793 398.165 990.972 398.108 990.122 397.995C989.328 397.882 988.762 397.74 988.422 397.57V391.28C989.102 391.62 990.547 391.79 992.757 391.79C994.513 391.79 996.1 391.422 997.517 390.685C998.99 390.005 1000.49 388.588 1002.02 386.435C1003.55 384.282 1005.05 381.137 1006.53 377H1002.79L986.552 334.415L982.557 333.31V329.825H1001.34V333.31L994.457 334.33L1003.38 360.34L1007.8 374.195L1012.05 360.255L1020.04 334.33L1014.09 333.31V329.825H1030.41V333.31L1025.99 334.33C1021.74 347.363 1018.37 357.563 1015.88 364.93C1013.44 372.24 1011.88 376.717 1011.2 378.36C1009.22 383.347 1007.46 387.172 1005.93 389.835C1004.4 392.555 1002.59 394.623 1000.49 396.04C998.395 397.457 995.76 398.165 992.587 398.165Z" fill="black"/>
</svg>
